<?xml version="1.0" encoding="UTF-8"?>
<!-- Generator: Adobe Illustrator 27.9.0, SVG Export Plug-In . SVG Version: 6.00 Build 0)  -->
<svg version="1.1" id="Layer_1" xmlns="http://www.w3.org/2000/svg" xmlns:xlink="http://www.w3.org/1999/xlink" x="0px" y="0px" viewBox="0 0 4000 4000" style="enable-background:new 0 0 4000 4000;" xml:space="preserve">
<style type="text/css">
	.st0{fill:transparent;}
	.st1{fill:#fff;}
</style>
<rect class="st0" width="4000" height="4000"/>
<path class="st1" d="M1711.03,717.86c69.29-24.95,226.71-71.66,404.02-33.99c88.95,18.9,159.62,54.15,176.6,62.73  c54.42,27.51,105.74,61.58,150.77,102.83c38.89,33.86,73.65,72.56,102.05,115.67c6.05,9.33,12.28,18.57,18.82,27.6  c65.24-6.79,131.67-1.86,195.17,14.7c115.45,32.56,220.85,100.5,297.23,193.13c29.18,36.19,54.02,75.91,74.39,117.68  c27.29,60.07,50.42,122.36,63.82,187.08c22.57,108.66,14.85,224.79-29.34,327.15c-14.73,32.4-30.26,64.78-51.63,93.37  c-61.55,85.83-150.83,151.45-251.11,184.57c-99.17,32.53-210.34,27.23-305.57-15.63c-32.31-15.69-64.25-33.15-91.54-56.78  c-27.75,3.29-54.54,11.72-81.09,20.09c-56.37,18.57-111.11,43.82-158.64,79.69c-43.63,34.3-79.17,80.38-96.1,133.62  c-28.53,86.86-32.9,180.04-25.06,270.59c6.85,63.38,20.22,126.21,41.83,186.27c9.55,27.51,23.88,55.13,48.5,72  c18.45,12.34,41.49,12.09,62.83,12.84c289.44-0.31,578.92,0.19,868.36-1.05c10-0.31,20.38-1.85,30.43-0.89  c8.84,0.85,16.8,6.02,21.23,13.72c0.28,0.48,0.55,0.96,0.81,1.45c2.52,4.64,3.66,9.92,3.3,15.19  c-4.54,66.52-23.64,133.11-61.22,188.68c-19.57,28.34-44.53,52.69-72.59,72.56c-52.59,34.95-113.34,55.79-174.74,69.12  c-35.97,8.71-72.75,13.61-109.56,17.21c-29.55,3.57-59.54,3.47-88.81,9.18c-48.13,49.4-112.87,78.67-178.34,97.37  c-74.7,20.59-152.29,27.29-229.31,31.85c-134.43,5.33-268.94,1.83-403.4-0.12c-77.77-2.91-155.57-8.56-232.38-21.8  c-86.98-16.59-174.83-41.96-247.61-94.21c-31.54-7.41-64.1-8.59-96.59-13.21c-56.43-8.02-113.25-15.94-166.95-35.6  c-47.57-16.5-93.03-39.32-133.84-68.87c-47.44-34.76-82.52-85.24-101.93-140.57c-13.27-39.51-23.41-81.06-20.96-123.05  c0.85-14.56,19.41-17.87,23.6-19.94c100.27-49.51,812.83,19.47,908.42,2.14c9.14-1.66,17.34-4.37,24.32-7.35  c18.68-7.96,34.2-22.01,44.14-39.71c7-12.46,12.17-26.05,16.91-39.42c18.36-55.54,30.3-113.12,36.87-171.2  c6.02-71.63,7.1-144.6-7.19-215.36c-6.23-30.73-18.26-60.03-31.94-88.16c-24.96-50.55-66.02-91.11-111.2-123.91  c-59.1-42.67-125.65-75.63-196.17-94.45c-72.35,51.75-157.87,86.95-247.12,92.94c-25.71,2.7-51.57,1.52-77.28-0.5  c-61.99-6.82-123.6-23.29-178.4-53.58c-48-25.95-92.75-58.73-129.37-99.39c-66.45-72.22-115.97-161.71-133.59-258.77  c-12.09-67.32-15.57-136.81-3.97-204.48c4.12-40.75,17.49-79.79,31.51-118.02c41.03-98.36,107.45-187.82,196.57-247.49  c35.13-25.92,74.33-46.08,115.17-61.4c63.6-25.12,132.66-34.02,200.72-32.37c4.32-8.32,10.58-20,18.61-33.68  c20.93-35.66,68.71-115.46,158.18-189.22C1589.86,770.47,1658.34,737.48,1711.03,717.86z M2248.61,1917.29  c8.99,14.11,4.9,7.7,13.89,21.81c26.8-15.95,53.6-31.9,80.41-47.85c-4.74-9.48-9.49-18.96-14.23-28.44  C2301.99,1880.97,2275.3,1899.13,2248.61,1917.29z M2110.65,1972.06c-10.93,3.23-22.53,6.33-34.76,9.21  c-12.24,2.87-24,5.25-35.23,7.23c-1.34,20.47-2.17,41.76-2.33,63.82c-0.46,60.68,4.13,116.41,11.3,166.24  c2.71-5.87,7.13-15.26,12.87-26.64c35.77-70.94,63.52-101.59,92.53-151.57c12.85-22.13,30.63-56.13,46.79-101.59  C2171.43,1949.86,2141.04,1960.96,2110.65,1972.06z M2252.11,2018.39c-18.85,19.2-33.51,38.38-44.84,55.63  c27.08-15.08,57.56-30.38,91.39-44.87c40.09-17.18,77.88-30.22,112.13-40.22c-5.65-6.4-11.34-13.06-17.06-19.98  c-8.66-10.49-16.76-20.82-24.31-30.94C2337.87,1951.78,2293.73,1976.01,2252.11,2018.39z M1620.76,1988.31  c8.93,3.1,17.92,6.41,26.97,9.93c88.23,34.33,161.9,81.47,222.66,131.63c-3.3-10.39-6.59-20.78-9.89-31.16  c-8.64-34.77-17.28-69.54-25.92-104.32c-26.47-2.97-56.89-8.07-90.03-16.76c-33.17-8.69-62.21-19.17-86.75-29.57L1620.76,1988.31z   M1899.26,1998.05c6.8,38.66,19.44,83.35,42.85,129.59c4.83,9.53,9.84,18.58,14.95,27.16c0.28-20.9,0.56-41.8,0.84-62.7  c1.84-32.27,3.68-64.54,5.52-96.81c-10.7,0.48-21.4,0.96-32.1,1.44C1920.63,1997.17,1909.94,1997.61,1899.26,1998.05z"/>
</svg>